<svg width="36" height="36" viewBox="0 0 36 36" fill="none" xmlns="http://www.w3.org/2000/svg">
<mask id="mask0_733_4204" style="mask-type:alpha" maskUnits="userSpaceOnUse" x="0" y="0" width="107" height="36">
<path fill-rule="evenodd" clip-rule="evenodd" d="M3.96868 19.0462H10.131C10.1581 19.0347 10.185 19.0229 10.2118 19.0107C11.2053 18.56 11.9516 17.674 12.2062 16.5912L15.836 1.15469C15.9948 0.479348 16.6017 0.0015564 17.3008 0.0015564C17.9954 0.0015564 18.5997 0.473316 18.7629 1.14301L22.5331 16.613C22.7952 17.6885 23.543 18.5659 24.5341 19.0107C24.5611 19.0229 24.5884 19.0347 24.6158 19.0462H30.7483C32.9401 19.0462 34.717 20.8087 34.717 22.9828C34.717 25.1569 32.9401 26.9194 30.7483 26.9194H23.7312C23.7066 26.9427 23.6824 26.9663 23.6585 26.9903C23.4322 27.2173 23.2358 27.4757 23.0763 27.7602L19.0388 34.9631C18.6806 35.6022 18.0014 35.9984 17.2643 35.9984C16.5323 35.9984 15.8569 35.6075 15.4967 34.9754L11.3603 27.7159C11.2084 27.4493 11.0239 27.206 10.8128 26.9903C10.7893 26.9664 10.7655 26.9427 10.7414 26.9194H3.96868C1.77684 26.9194 0 25.1569 0 22.9828C0 20.8087 1.77684 19.0462 3.96868 19.0462ZM21.0896 19.0107C20.7172 18.4531 20.4381 17.8273 20.2741 17.1546L17.3151 5.01295L14.4695 17.1148C14.3078 17.8023 14.026 18.4418 13.647 19.0107H21.0896ZM30.7483 21.3514H3.96868C3.06035 21.3514 2.324 22.0818 2.324 22.9828C2.324 23.8838 3.06035 24.6142 3.96868 24.6142H30.7483C31.6566 24.6142 32.393 23.8838 32.393 22.9828C32.393 22.0818 31.6566 21.3514 30.7483 21.3514ZM20.8488 26.9903H13.6164L17.2622 33.3888L20.8488 26.9903Z" fill="white"/>
</mask>
<g mask="url(#mask0_733_4204)">
<g filter="url(#filter0_f_733_4204)">
<path d="M-11.7254 -27.2672C-19.238 -24.4486 -19.7714 -36.5637 -25.7926 -38.2257C-47.1825 -44.1302 -49.2116 38.2574 -27.2026 50.6782C-6.38019 62.4293 15.0661 -5.13522 15.0661 -5.13522C15.0661 -5.13522 19.2106 -23.0356 15.0661 -30.2754C11.3257 -36.8091 6.44806 -36.4926 1.0996 -34.1969C-3.12599 -32.3831 -7.46591 -28.8653 -11.7254 -27.2672Z" fill="#00FFD4"/>
</g>
<g filter="url(#filter1_f_733_4204)">
<path d="M32.7333 -20.4298C17.6263 -14.758 16.5535 -39.1368 4.44563 -42.4813C-38.5674 -54.3626 -42.6477 111.423 1.61011 136.417C43.4819 160.064 86.6081 24.1056 86.6081 24.1056C86.6081 24.1056 94.9424 -11.9148 86.6081 -26.4832C79.0867 -39.6307 69.2782 -38.9939 58.523 -34.3742C50.0258 -30.7243 41.2987 -23.6456 32.7333 -20.4298Z" fill="#00FF29"/>
</g>
<g filter="url(#filter2_f_733_4204)">
<ellipse cx="37.337" cy="59.6724" rx="37.337" ry="59.6724" transform="matrix(-1 0 0 1 68.0904 -4.32782)" fill="#00ADFF"/>
</g>
<g filter="url(#filter3_f_733_4204)">
<path d="M97.01 -5.48906C107.587 12.0097 114.365 25.7941 114.911 45.5059C115.975 83.9369 76.257 97.5726 52.8361 67.2961C34.3247 43.3661 39.8234 16.9799 40.055 -12.9679C40.1572 -26.1822 37.8196 -36.3436 42.9158 -45.496C54.3199 -65.9766 80.9175 -32.1139 97.01 -5.48906Z" fill="#FF00D6"/>
</g>
<g filter="url(#filter4_f_733_4204)">
<ellipse cx="29.7693" cy="47.5639" rx="29.7693" ry="47.5639" transform="matrix(-1 0 0 1 129.512 -71.9243)" fill="#FF8000"/>
</g>
</g>
<defs>
<filter id="filter0_f_733_4204" x="-78.8797" y="-74.61" width="131.87" height="162.743" filterUnits="userSpaceOnUse" color-interpolation-filters="sRGB">
<feFlood flood-opacity="0" result="BackgroundImageFix"/>
<feBlend mode="normal" in="SourceGraphic" in2="BackgroundImageFix" result="shape"/>
<feGaussianBlur stdDeviation="18.041" result="effect1_foregroundBlur_733_4204"/>
</filter>
<filter id="filter1_f_733_4204" x="-65.8319" y="-79.1716" width="192.226" height="254.433" filterUnits="userSpaceOnUse" color-interpolation-filters="sRGB">
<feFlood flood-opacity="0" result="BackgroundImageFix"/>
<feBlend mode="normal" in="SourceGraphic" in2="BackgroundImageFix" result="shape"/>
<feGaussianBlur stdDeviation="18.041" result="effect1_foregroundBlur_733_4204"/>
</filter>
<filter id="filter2_f_733_4204" x="-42.6655" y="-40.4097" width="146.838" height="191.509" filterUnits="userSpaceOnUse" color-interpolation-filters="sRGB">
<feFlood flood-opacity="0" result="BackgroundImageFix"/>
<feBlend mode="normal" in="SourceGraphic" in2="BackgroundImageFix" result="shape"/>
<feGaussianBlur stdDeviation="18.041" result="effect1_foregroundBlur_733_4204"/>
</filter>
<filter id="filter3_f_733_4204" x="3.03386" y="-87.8639" width="147.98" height="207.786" filterUnits="userSpaceOnUse" color-interpolation-filters="sRGB">
<feFlood flood-opacity="0" result="BackgroundImageFix"/>
<feBlend mode="normal" in="SourceGraphic" in2="BackgroundImageFix" result="shape"/>
<feGaussianBlur stdDeviation="18.041" result="effect1_foregroundBlur_733_4204"/>
</filter>
<filter id="filter4_f_733_4204" x="33.8918" y="-108.006" width="131.702" height="167.292" filterUnits="userSpaceOnUse" color-interpolation-filters="sRGB">
<feFlood flood-opacity="0" result="BackgroundImageFix"/>
<feBlend mode="normal" in="SourceGraphic" in2="BackgroundImageFix" result="shape"/>
<feGaussianBlur stdDeviation="18.041" result="effect1_foregroundBlur_733_4204"/>
</filter>
</defs>
</svg>

