<svg width="109" height="36" viewBox="0 0 109 36" fill="none" xmlns="http://www.w3.org/2000/svg">
<mask id="mask0_733_4204" style="mask-type:alpha" maskUnits="userSpaceOnUse" x="0" y="0" width="107" height="36">
<path d="M47.0578 18.0774C48.0855 18.0774 48.8362 17.8296 49.31 17.334C49.791 16.8384 50.0316 16.1605 50.0316 15.3005C50.0316 14.9069 49.9696 14.5498 49.8457 14.2291C49.7291 13.9011 49.5469 13.6241 49.2991 13.3982C49.0585 13.1649 48.7524 12.9864 48.3807 12.8625C48.009 12.7386 47.568 12.6766 47.0578 12.6766H44.9806V18.0774H47.0578ZM47.0578 10.1839C48.1438 10.1839 49.0804 10.3115 49.8676 10.5666C50.662 10.8217 51.3144 11.1788 51.8246 11.638C52.3348 12.0899 52.7101 12.6292 52.9506 13.256C53.1984 13.8829 53.3224 14.5643 53.3224 15.3005C53.3224 16.0804 53.1948 16.7946 52.9397 17.4433C52.6846 18.092 52.2983 18.6496 51.7808 19.1161C51.2633 19.5825 50.611 19.947 49.8238 20.2093C49.0367 20.4644 48.1147 20.592 47.0578 20.592H44.9806V26.0475H41.7007V10.1839H47.0578ZM64.8227 23.3799V26.0475H55.4095V10.1839H58.6894V23.3799H64.8227ZM81.6702 18.1102C81.6702 19.2691 81.4734 20.3442 81.0798 21.3354C80.6935 22.3267 80.1433 23.1831 79.429 23.9046C78.722 24.6262 77.8692 25.1947 76.8707 25.6102C75.8722 26.0183 74.7643 26.2224 73.5471 26.2224C72.3299 26.2224 71.2221 26.0183 70.2235 25.6102C69.225 25.1947 68.3686 24.6262 67.6543 23.9046C66.94 23.1831 66.3861 22.3267 65.9925 21.3354C65.6062 20.3442 65.4131 19.2691 65.4131 18.1102C65.4131 16.9514 65.6062 15.8799 65.9925 14.896C66.3861 13.9047 66.94 13.0483 67.6543 12.3268C68.3686 11.6052 69.225 11.0403 70.2235 10.6322C71.2221 10.2167 72.3299 10.009 73.5471 10.009C74.7643 10.009 75.8722 10.2167 76.8707 10.6322C77.8692 11.0403 78.722 11.6088 79.429 12.3377C80.1433 13.0593 80.6935 13.9157 81.0798 14.9069C81.4734 15.8909 81.6702 16.9586 81.6702 18.1102ZM78.3138 18.1102C78.3138 17.2793 78.2045 16.5359 77.9858 15.8799C77.7672 15.2167 77.4501 14.6555 77.0347 14.1963C76.6265 13.7298 76.1273 13.3763 75.5369 13.1358C74.9538 12.888 74.2905 12.7641 73.5471 12.7641C72.8037 12.7641 72.1368 12.888 71.5464 13.1358C70.956 13.3763 70.4531 13.7298 70.0377 14.1963C69.6295 14.6555 69.3161 15.2167 69.0974 15.8799C68.8788 16.5359 68.7694 17.2793 68.7694 18.1102C68.7694 18.9484 68.8788 19.6991 69.0974 20.3624C69.3161 21.0184 69.6295 21.5759 70.0377 22.0351C70.4531 22.4943 70.956 22.8478 71.5464 23.0956C72.1368 23.3361 72.8037 23.4564 73.5471 23.4564C74.2905 23.4564 74.9538 23.3361 75.5369 23.0956C76.1273 22.8478 76.6265 22.4943 77.0347 22.0351C77.4501 21.5759 77.7672 21.0184 77.9858 20.3624C78.2045 19.6991 78.3138 18.9484 78.3138 18.1102ZM94.8238 12.8297H90.1883V26.0475H86.8975V12.8297H82.262V10.1839H94.8238V12.8297ZM105.364 13.2233C105.262 13.3909 105.156 13.5148 105.047 13.595C104.945 13.6679 104.81 13.7043 104.642 13.7043C104.482 13.7043 104.307 13.6496 104.118 13.5403C103.935 13.4237 103.72 13.2998 103.473 13.1686C103.225 13.0374 102.94 12.9171 102.62 12.8078C102.299 12.6912 101.924 12.6329 101.494 12.6329C100.736 12.6329 100.167 12.8042 99.7882 13.1467C99.4092 13.482 99.2197 13.923 99.2197 14.4696C99.2197 14.8194 99.3217 15.111 99.5258 15.3442C99.7371 15.5702 100.01 15.767 100.346 15.9346C100.688 16.1022 101.075 16.2517 101.505 16.3828C101.935 16.514 102.376 16.6598 102.827 16.8202C103.279 16.9732 103.72 17.1554 104.15 17.3668C104.58 17.5782 104.963 17.8442 105.298 18.1649C105.641 18.4856 105.914 18.8792 106.118 19.3456C106.33 19.8048 106.435 20.366 106.435 21.0293C106.435 21.7509 106.308 22.4287 106.053 23.0628C105.805 23.6896 105.444 24.2399 104.97 24.7137C104.497 25.1801 103.91 25.5482 103.21 25.8179C102.518 26.0876 101.731 26.2224 100.849 26.2224C100.346 26.2224 99.8428 26.1714 99.3399 26.0694C98.8443 25.9673 98.3633 25.8252 97.8968 25.643C97.4376 25.4608 97.0039 25.2421 96.5958 24.987C96.1876 24.7319 95.8305 24.4476 95.5244 24.1342L96.4864 22.5818C96.5666 22.4652 96.6723 22.3704 96.8035 22.2975C96.9347 22.2173 97.0732 22.1773 97.2189 22.1773C97.4157 22.1773 97.6235 22.2501 97.8421 22.3959C98.0608 22.5417 98.3122 22.702 98.5965 22.877C98.8807 23.0519 99.2087 23.2122 99.5804 23.358C99.9594 23.5038 100.411 23.5767 100.936 23.5767C101.701 23.5767 102.292 23.4017 102.707 23.0519C103.13 22.702 103.341 22.1809 103.341 21.4885C103.341 21.0876 103.236 20.7633 103.024 20.5155C102.82 20.2677 102.551 20.0599 102.215 19.8923C101.88 19.7247 101.497 19.5825 101.067 19.4659C100.637 19.342 100.196 19.2072 99.7444 19.0614C99.2925 18.9156 98.8516 18.7407 98.4216 18.5366C97.9915 18.3325 97.6089 18.0629 97.2736 17.7276C96.9383 17.3923 96.665 16.9769 96.4536 16.4812C96.2496 15.9856 96.1475 15.3697 96.1475 14.6336C96.1475 14.0432 96.2641 13.4711 96.4974 12.9171C96.7306 12.3632 97.0732 11.8712 97.5251 11.4412C97.977 11.0112 98.5309 10.665 99.1869 10.4026C99.8501 10.1402 100.608 10.009 101.461 10.009C102.416 10.009 103.298 10.1584 104.107 10.4572C104.923 10.7488 105.612 11.1569 106.173 11.6817L105.364 13.2233Z" fill="black"/>
<path fill-rule="evenodd" clip-rule="evenodd" d="M3.96868 19.0462H10.131C10.1581 19.0347 10.185 19.0229 10.2118 19.0107C11.2053 18.56 11.9516 17.674 12.2062 16.5912L15.836 1.15469C15.9948 0.479348 16.6017 0.0015564 17.3008 0.0015564C17.9954 0.0015564 18.5997 0.473316 18.7629 1.14301L22.5331 16.613C22.7952 17.6885 23.543 18.5659 24.5341 19.0107C24.5611 19.0229 24.5884 19.0347 24.6158 19.0462H30.7483C32.9401 19.0462 34.717 20.8087 34.717 22.9828C34.717 25.1569 32.9401 26.9194 30.7483 26.9194H23.7312C23.7066 26.9427 23.6824 26.9663 23.6585 26.9903C23.4322 27.2173 23.2358 27.4757 23.0763 27.7602L19.0388 34.9631C18.6806 35.6022 18.0014 35.9984 17.2643 35.9984C16.5323 35.9984 15.8569 35.6075 15.4967 34.9754L11.3603 27.7159C11.2084 27.4493 11.0239 27.206 10.8128 26.9903C10.7893 26.9664 10.7655 26.9427 10.7414 26.9194H3.96868C1.77684 26.9194 0 25.1569 0 22.9828C0 20.8087 1.77684 19.0462 3.96868 19.0462ZM21.0896 19.0107C20.7172 18.4531 20.4381 17.8273 20.2741 17.1546L17.3151 5.01295L14.4695 17.1148C14.3078 17.8023 14.026 18.4418 13.647 19.0107H21.0896ZM30.7483 21.3514H3.96868C3.06035 21.3514 2.324 22.0818 2.324 22.9828C2.324 23.8838 3.06035 24.6142 3.96868 24.6142H30.7483C31.6566 24.6142 32.393 23.8838 32.393 22.9828C32.393 22.0818 31.6566 21.3514 30.7483 21.3514ZM20.8488 26.9903H13.6164L17.2622 33.3888L20.8488 26.9903Z" fill="white"/>
</mask>
<g mask="url(#mask0_733_4204)">
<g filter="url(#filter0_f_733_4204)">
<path d="M-11.7254 -27.2672C-19.238 -24.4486 -19.7714 -36.5637 -25.7926 -38.2257C-47.1825 -44.1302 -49.2116 38.2574 -27.2026 50.6782C-6.38019 62.4293 15.0661 -5.13522 15.0661 -5.13522C15.0661 -5.13522 19.2106 -23.0356 15.0661 -30.2754C11.3257 -36.8091 6.44806 -36.4926 1.0996 -34.1969C-3.12599 -32.3831 -7.46591 -28.8653 -11.7254 -27.2672Z" fill="#00FFD4"/>
</g>
<g filter="url(#filter1_f_733_4204)">
<path d="M32.7333 -20.4298C17.6263 -14.758 16.5535 -39.1368 4.44563 -42.4813C-38.5674 -54.3626 -42.6477 111.423 1.61011 136.417C43.4819 160.064 86.6081 24.1056 86.6081 24.1056C86.6081 24.1056 94.9424 -11.9148 86.6081 -26.4832C79.0867 -39.6307 69.2782 -38.9939 58.523 -34.3742C50.0258 -30.7243 41.2987 -23.6456 32.7333 -20.4298Z" fill="#00FF29"/>
</g>
<g filter="url(#filter2_f_733_4204)">
<ellipse cx="37.337" cy="59.6724" rx="37.337" ry="59.6724" transform="matrix(-1 0 0 1 68.0904 -4.32782)" fill="#00ADFF"/>
</g>
<g filter="url(#filter3_f_733_4204)">
<path d="M97.01 -5.48906C107.587 12.0097 114.365 25.7941 114.911 45.5059C115.975 83.9369 76.257 97.5726 52.8361 67.2961C34.3247 43.3661 39.8234 16.9799 40.055 -12.9679C40.1572 -26.1822 37.8196 -36.3436 42.9158 -45.496C54.3199 -65.9766 80.9175 -32.1139 97.01 -5.48906Z" fill="#FF00D6"/>
</g>
<g filter="url(#filter4_f_733_4204)">
<ellipse cx="29.7693" cy="47.5639" rx="29.7693" ry="47.5639" transform="matrix(-1 0 0 1 129.512 -71.9243)" fill="#FF8000"/>
</g>
</g>
<defs>
<filter id="filter0_f_733_4204" x="-78.8797" y="-74.61" width="131.87" height="162.743" filterUnits="userSpaceOnUse" color-interpolation-filters="sRGB">
<feFlood flood-opacity="0" result="BackgroundImageFix"/>
<feBlend mode="normal" in="SourceGraphic" in2="BackgroundImageFix" result="shape"/>
<feGaussianBlur stdDeviation="18.041" result="effect1_foregroundBlur_733_4204"/>
</filter>
<filter id="filter1_f_733_4204" x="-65.8319" y="-79.1716" width="192.226" height="254.433" filterUnits="userSpaceOnUse" color-interpolation-filters="sRGB">
<feFlood flood-opacity="0" result="BackgroundImageFix"/>
<feBlend mode="normal" in="SourceGraphic" in2="BackgroundImageFix" result="shape"/>
<feGaussianBlur stdDeviation="18.041" result="effect1_foregroundBlur_733_4204"/>
</filter>
<filter id="filter2_f_733_4204" x="-42.6655" y="-40.4097" width="146.838" height="191.509" filterUnits="userSpaceOnUse" color-interpolation-filters="sRGB">
<feFlood flood-opacity="0" result="BackgroundImageFix"/>
<feBlend mode="normal" in="SourceGraphic" in2="BackgroundImageFix" result="shape"/>
<feGaussianBlur stdDeviation="18.041" result="effect1_foregroundBlur_733_4204"/>
</filter>
<filter id="filter3_f_733_4204" x="3.03386" y="-87.8639" width="147.98" height="207.786" filterUnits="userSpaceOnUse" color-interpolation-filters="sRGB">
<feFlood flood-opacity="0" result="BackgroundImageFix"/>
<feBlend mode="normal" in="SourceGraphic" in2="BackgroundImageFix" result="shape"/>
<feGaussianBlur stdDeviation="18.041" result="effect1_foregroundBlur_733_4204"/>
</filter>
<filter id="filter4_f_733_4204" x="33.8918" y="-108.006" width="131.702" height="167.292" filterUnits="userSpaceOnUse" color-interpolation-filters="sRGB">
<feFlood flood-opacity="0" result="BackgroundImageFix"/>
<feBlend mode="normal" in="SourceGraphic" in2="BackgroundImageFix" result="shape"/>
<feGaussianBlur stdDeviation="18.041" result="effect1_foregroundBlur_733_4204"/>
</filter>
</defs>
</svg>

